<svg xmlns="http://www.w3.org/2000/svg" xmlns:xlink="http://www.w3.org/1999/xlink" width="79.238" height="79.6" viewBox="0 0 79.238 79.6"><defs><style>.a{fill:none;}.b{fill:#fff;}.c{clip-path:url(#c);}.d{fill:#f7cf43;}.e{filter:url(#a);}</style><filter id="a" x="0" y="0" width="79.238" height="79.6" filterUnits="userSpaceOnUse"><feOffset dx="2" dy="2" input="SourceAlpha"/><feGaussianBlur stdDeviation="4" result="b"/><feFlood flood-color="#7fd1d8" flood-opacity="0.4"/><feComposite operator="in" in2="b"/><feComposite in="SourceGraphic"/></filter><clipPath id="c"><rect class="a" width="16" height="16"/></clipPath></defs><g transform="translate(-871.447 -167.641)"><g transform="translate(936.685 177.641) rotate(90)"><g transform="translate(0 0)"><g class="e" transform="matrix(0, -1, 1, 0, -10, 65.24)"><path class="b" d="M.4,27.291s5.065,27.947,28.7,27.947,31.321-25.321,23.632-39.95S22.9-4.03,9.963,3.659.4,27.291.4,27.291Z" transform="translate(65.24 10) rotate(90)"/></g></g></g><g class="c" transform="translate(901 197)"><path class="d" d="M2,7A4.951,4.951,0,0,1,7,2a4.951,4.951,0,0,1,5,5,4.951,4.951,0,0,1-5,5A4.951,4.951,0,0,1,2,7Zm12.3,8.7a.99.99,0,0,0,1.4-1.4l-3.1-3.1A6.847,6.847,0,0,0,14,7,6.957,6.957,0,0,0,7,0,6.957,6.957,0,0,0,0,7a6.957,6.957,0,0,0,7,7,6.847,6.847,0,0,0,4.2-1.4Z"/></g></g></svg>