<svg xmlns="http://www.w3.org/2000/svg" xmlns:xlink="http://www.w3.org/1999/xlink" width="63" height="63" viewBox="0 0 63 63"><defs><style>.a{fill:#fff;}.b{fill:#7fd1d8;}.c{filter:url(#a);}</style><filter id="a" x="0" y="0" width="63" height="63" filterUnits="userSpaceOnUse"><feOffset dy="3" input="SourceAlpha"/><feGaussianBlur stdDeviation="3" result="b"/><feFlood flood-color="#7fd1d8" flood-opacity="0.4"/><feComposite operator="in" in2="b"/><feComposite in="SourceGraphic"/></filter></defs><g transform="translate(-243 -388.282)"><g class="c" transform="matrix(1, 0, 0, 1, 243, 388.28)"><circle class="a" cx="22.5" cy="22.5" r="22.5" transform="translate(9 6)"/></g><path class="b" d="M26.336,19.9C25.2,12.907,22.525,8,19.41,8s-5.792,4.907-6.926,11.9ZM11.9,27.41a49.055,49.055,0,0,0,.258,5.009h14.5a49.055,49.055,0,0,0,.258-5.009,49.055,49.055,0,0,0-.258-5.009h-14.5A49.055,49.055,0,0,0,11.9,27.41ZM37.309,19.9A19.451,19.451,0,0,0,24.943,8.814c1.91,2.645,3.224,6.629,3.913,11.082ZM13.868,8.814A19.438,19.438,0,0,0,1.511,19.9H9.963c.681-4.453,2-8.437,3.905-11.082ZM38.146,22.4H29.169c.164,1.644.258,3.326.258,5.009s-.094,3.365-.258,5.009h8.969a19.243,19.243,0,0,0,.673-5.009,19.578,19.578,0,0,0-.665-5.009ZM9.392,27.41c0-1.683.094-3.365.258-5.009H.673a18.974,18.974,0,0,0,0,10.018H9.642C9.486,30.775,9.392,29.092,9.392,27.41Zm3.091,7.513c1.135,6.989,3.811,11.9,6.926,11.9s5.792-4.907,6.926-11.9ZM24.951,46.005A19.469,19.469,0,0,0,37.317,34.923H28.864C28.175,39.376,26.86,43.36,24.951,46.005ZM1.511,34.923A19.451,19.451,0,0,0,13.876,46.005c-1.91-2.645-3.224-6.629-3.913-11.082Z" transform="translate(254.595 389.119)"/></g></svg>