<svg xmlns="http://www.w3.org/2000/svg" width="30" height="30" viewBox="0 0 30 30"><defs><style>.a,.d{fill:none;}.a{stroke:#7fd1d8;stroke-width:1.3px;}.b{fill:#7fd1d8;}.c{stroke:none;}</style></defs><g transform="translate(0 0.379)"><g class="a" transform="translate(0 -0.379)"><circle class="c" cx="15" cy="15" r="15"/><circle class="d" cx="15" cy="15" r="14.35"/></g><path class="b" d="M13.833,12.169a2.1,2.1,0,0,0-1.416.556l-5.149-3a2.364,2.364,0,0,0,.065-.506,2.364,2.364,0,0,0-.065-.506L12.36,5.748a2.162,2.162,0,1,0-.693-1.582,2.364,2.364,0,0,0,.065.506L6.64,7.641a2.167,2.167,0,1,0,0,3.163l5.142,3a2.038,2.038,0,0,0-.058.469,2.109,2.109,0,1,0,2.109-2.109Z" transform="translate(6 6.539)"/></g></svg>