<svg xmlns="http://www.w3.org/2000/svg" width="29.304" height="30.158" viewBox="0 0 29.304 30.158"><defs><style>.a{fill:#231f20;}.b{fill:#fdbb11;}.c{fill:#e19326;}.d{fill:#aebaae;}.e{fill:#dfeddf;}.f{fill:#fff;}.g{fill:#dc6c85;}</style></defs><g transform="translate(0 0)"><path class="a" d="M625.909,225.524c.486.28.979.531,1.465.752a17.538,17.538,0,0,0,2.7.964,17.854,17.854,0,0,0,4.93.613,14.924,14.924,0,0,0,4.849-.871,12.5,12.5,0,0,0,1.7-.768c3.423-1.87,3.7-6.295,1.315-9.192a6.914,6.914,0,0,0-.592-.635,9.954,9.954,0,0,0-1.2-.97,15.535,15.535,0,0,0-4.725-2.106,18.838,18.838,0,0,0-3.465-.6,15.343,15.343,0,0,0-1.864-.033,15.149,15.149,0,0,0-3.643.6,9.2,9.2,0,0,0-4.672,2.969C619.567,220.243,622.532,223.574,625.909,225.524Z" transform="translate(-616.498 -197.699)"/><path class="b" d="M646.676,218.8a25.268,25.268,0,0,1-.844,6.649,24.447,24.447,0,0,1-1.1,2.862,14.924,14.924,0,0,0,4.849-.871,23.792,23.792,0,0,0,.784-2.606c.854-3.138.474-5.974.436-8.958a15.534,15.534,0,0,0-4.725-2.106c.119.635.426,1.376.489,1.838A25.578,25.578,0,0,1,646.676,218.8Z" transform="translate(-626.231 -198.161)"/><path class="b" d="M630.452,219.683l.148.024.025-.149.149.025c.124-.055.211-.117.2-.272l.149.025c.266.006.106-.4.347-.247-.043-.2.267-.223.223-.421l.148.024.025-.148.149.024.025-.148.148.024c.05-.068,0-.229.05-.3l.148.025c.05-.068,0-.229.05-.3l.149.025c.043-.26.316-.291.248-.569l.149.025c.049-.068,0-.229.049-.3l.149.025c.05-.068,0-.229.05-.3l.148.025c.062-.142.013-.3.075-.446l.149.025c.05-.068,0-.229.05-.3l.148.025c.062-.143.013-.3.075-.446.05-.068.124-.055.173-.124a2.26,2.26,0,0,0,.149-.433,9.866,9.866,0,0,0,.5-2.448c.461-.007.939.008,1.426.046.675,3.3-.025,7.521-.942,10.476a12.675,12.675,0,0,1-1.867,4.051,17.532,17.532,0,0,1-2.7-.964c-.485-.221-.979-.472-1.465-.752a15.259,15.259,0,0,0,.767-2.643c.167-1.011.326-2.029.462-3.048l.049,0Z" transform="translate(-619.737 -197.699)"/><path class="c" d="M631.49,213.287a15.149,15.149,0,0,1,3.643-.6c.144-.007.291-.011.438-.013a9.852,9.852,0,0,1-.5,2.448,2.252,2.252,0,0,1-.149.433c-.05.068-.124.056-.173.124-.062.142-.013.3-.075.446l-.148-.025c-.05.068,0,.229-.05.3l-.149-.025c-.062.142-.012.3-.075.446l-.148-.025c-.05.068,0,.229-.05.3l-.149-.025c-.049.068,0,.229-.049.3l-.149-.025c.068.278-.2.309-.248.569l-.149-.025c-.05.068,0,.229-.05.3l-.148-.025c-.05.068,0,.229-.05.3l-.148-.025-.025.148-.149-.024-.025.148-.148-.024c.043.2-.267.222-.224.421-.241-.155-.081.254-.347.247l-.149-.025c.012.155-.075.217-.2.272l-.149-.025-.025.149-.148-.024-.025.148-.049,0c.151-1.131.274-2.262.345-3.387C631.655,215.6,631.454,214.374,631.49,213.287Z" transform="translate(-620.615 -197.701)"/><path class="d" d="M625.818,201.895c3.973.536,4.552-3.342,4.016-6.381a8.915,8.915,0,0,0-3.079-5.717,5,5,0,0,0-8.067,4.112c.115,2.8,2.064,4.561,4,6.28A6.3,6.3,0,0,0,625.818,201.895Z" transform="translate(-615.377 -187.742)"/><path class="e" d="M631.413,201c1.75,5.632,7.567,4.568,11.5,2.394,2.778-1.534,5.349-3.82,6.1-6.892,1.38-5.644-4.813-11.292-10.864-8.958-3.871,1.493-5.114,4.968-6.314,8.4A8.247,8.247,0,0,0,631.413,201Z" transform="translate(-620.581 -187.008)"/><g transform="translate(0 8.847)"><path class="b" d="M616.314,203.194c-3.317,1.341-3.71,5.582-3,8.928.722,3.4,5.192,3.754,8.213,2.884a7.865,7.865,0,0,0,4.357-2.721,5.748,5.748,0,0,0-.006-5.974C623.988,202.826,619.6,201.864,616.314,203.194Z" transform="translate(-613.015 -202.36)"/><g transform="translate(7.394 2.592)"><path class="f" d="M631.252,209.634c-.074,1.992-2.423,2.976-4.13,2.28-1.966-.8-1.808-3.9-.121-4.892a2.691,2.691,0,0,1,3.677.8A3.063,3.063,0,0,1,631.252,209.634Z" transform="translate(-625.691 -206.617)"/><path d="M627.423,210.4a1.486,1.486,0,0,1,.774-2.743,1.483,1.483,0,1,1-.774,2.743Z" transform="translate(-626.123 -207.049)"/><path d="M627.8,209.389a.546.546,0,0,1-.318-.974.512.512,0,0,1,.852.29A.572.572,0,0,1,627.8,209.389Z" transform="translate(-626.35 -207.315)"/></g><g transform="translate(0.378 2.126)"><path class="f" d="M619.651,209.067c-.08,2.145-2.609,3.2-4.448,2.455-2.117-.863-1.947-4.2-.13-5.267a2.9,2.9,0,0,1,3.959.862A3.3,3.3,0,0,1,619.651,209.067Z" transform="translate(-613.663 -205.818)"/><path d="M615.528,209.89a1.6,1.6,0,0,1,.833-2.953,1.6,1.6,0,1,1-.833,2.953Z" transform="translate(-614.129 -206.284)"/><path d="M615.937,208.8a.588.588,0,0,1-.343-1.049.552.552,0,0,1,.918.313A.615.615,0,0,1,615.937,208.8Z" transform="translate(-614.373 -206.571)"/></g><path class="a" d="M630.45,204.008a2.6,2.6,0,0,1,.548-.557.377.377,0,0,1,.616.233.311.311,0,0,1-.275.342.316.316,0,0,1-.343-.275l.089.163.145.065a.265.265,0,0,0,.107-.011c.039-.023.042-.025.01,0a1.013,1.013,0,0,0-.127.106,3.021,3.021,0,0,0-.285.326.311.311,0,0,1-.485-.389Z" transform="translate(-620.25 -202.672)"/><path class="a" d="M617.754,203.072q.1-.06-.076.139a.161.161,0,0,0,0,.089c-.014-.03-.012-.029.005,0-.01-.016-.021-.033-.033-.049a1.1,1.1,0,0,0-.16-.18,2.413,2.413,0,0,0-.234-.195c-.01-.007-.11-.071-.072-.049-.023-.013-.147-.058-.058-.035a.316.316,0,0,1-.257-.356.311.311,0,0,1,.356-.257,1.785,1.785,0,0,1,.791.544c.193.2.459.642.1.845a.317.317,0,0,1-.435-.064.311.311,0,0,1,.064-.435Z" transform="translate(-614.621 -202.174)"/><path class="g" d="M625.543,217.508a3.841,3.841,0,0,1-3.229-.533c.031,1.877,2.125,2.057,3.091.8" transform="translate(-616.89 -208.341)"/></g></g><path class="a" d="M660.876,229.948a3.76,3.76,0,0,0-2.056-.5c-.363.009-.422-.553-.058-.562a4.316,4.316,0,0,1,2.353.548.289.289,0,0,1,.137.375.284.284,0,0,1-.376.137Z" transform="translate(-631.974 -204.457)"/></svg>